<?xml version="1.0" encoding="UTF-8"?>
<svg width="160px" height="48px" viewBox="0 0 160 48" version="1.1" xmlns="http://www.w3.org/2000/svg" xmlns:xlink="http://www.w3.org/1999/xlink">
    <title>logo</title>
    <defs>
        <polygon id="path-1" points="0.137497905 0.116226786 14.28128 0.116226786 14.28128 9.48115536 0.137497905 9.48115536"></polygon>
        <polygon id="path-3" points="0 21.8917679 103.820328 21.8917679 103.820328 0 0 0"></polygon>
    </defs>
    <g id="9.基础原件/1.导航/导航logo" stroke="none" stroke-width="1" fill="none" fill-rule="evenodd">
        <g id="编组-2" transform="translate(24.000000, 12.000000)">
            <g id="编组" transform="translate(-0.000000, 0.000000)">
                <rect id="矩形" stroke="#979797" fill="#D8D8D8" opacity="0" x="0.5" y="0.5" width="103" height="23"></rect>
                <g id="Group-23-Copy-2" transform="translate(-0.000000, 1.000000)">
                    <path d="M50.4516678,3.48332679 L47.5446202,3.48332679 L47.5446202,4.27080893 L41.5377783,4.27080893 L41.5377783,16.1657375 C41.5377783,16.4947554 41.268765,16.7615054 40.9369554,16.7615054 L40.9369554,18.4087554 L41.5930469,18.4087554 C42.6023421,18.4087554 43.4202773,17.5975054 43.4202773,16.5967018 L43.4202773,6.13766607 L55.4951726,6.13766607 L55.4951726,4.27080893 L50.4516678,4.27080893 L50.4516678,3.48332679 Z" id="Fill-1" fill="#1D1D27"></path>
                    <path d="M52.6569432,9.2437125 C52.6569432,9.56723036 52.3924861,9.8294625 52.0662232,9.8294625 L46.8384899,9.8294625 L46.8384899,8.84240893 L52.6569432,8.84240893 L52.6569432,9.2437125 Z M54.5396404,6.67717679 L52.6569432,6.67717679 L52.6569432,7.30849821 L46.8384899,7.30849821 L46.8384899,6.67717679 L44.9559909,6.67717679 L44.9559909,7.30849821 L44.0570347,7.30849821 L44.0570347,8.84240893 L44.9559909,8.84240893 L44.9559909,11.6963196 L52.7124099,11.6963196 C53.721507,11.6963196 54.5396404,10.8850696 54.5396404,9.8844625 L54.5396404,8.84240893 L55.4952518,8.84240893 L55.4952518,7.30849821 L54.5396404,7.30849821 L54.5396404,6.67717679 Z" id="Fill-3" fill="#1D1D27"></path>
                    <polygon id="Fill-5" fill="#1D1D27" points="51.1458728 16.3623429 55.0820251 13.9120929 55.0820251 12.3781821 44.2787032 12.3781821 44.2787032 13.9120929 51.6583451 13.9120929 49.3703451 15.3316821 48.1445318 14.6202179 44.6927223 14.6202179 47.6885166 16.3753071 46.8836556 16.874825 44.0570347 16.874825 44.0570347 18.4087357 47.8586804 18.4087357 49.4586956 17.4126464 51.158947 18.4087357 55.4952518 18.4087357 55.4952518 16.874825 52.0285851 16.874825"></polygon>
                    <g id="Group-9" transform="translate(89.539048, 8.927482)">
                        <mask id="mask-2" fill="white">
                            <use xlink:href="#path-1"></use>
                        </mask>
                        <g id="Clip-8"></g>
                        <path d="M14.2812998,2.06165536 L14.2812998,0.116226786 L0.137497905,0.116226786 L0.137497905,2.06165536 L2.629536,2.06165536 L0.257741714,7.80306607 L0.257741714,9.48115536 L12.2153646,9.48115536 C13.1931627,9.48115536 13.9861379,8.69504821 13.9861379,7.72528036 L13.9861379,5.05522679 L12.0087512,5.05522679 L12.0087512,6.96431607 C12.0087512,7.2876375 11.7444922,7.54967321 11.4184274,7.54967321 L2.5382141,7.54967321 L4.83334552,2.06165536 L14.2812998,2.06165536 Z" id="Fill-7" fill="#1D1D27" mask="url(#mask-2)"></path>
                    </g>
                    <mask id="mask-4" fill="white">
                        <use xlink:href="#path-3"></use>
                    </mask>
                    <g id="Clip-11"></g>
                    <polygon id="Fill-10" fill="#1D1D27" mask="url(#mask-4)" points="89.9126552 5.72373214 103.584198 5.72373214 103.584198 3.77830357 89.9126552 3.77830357"></polygon>
                    <path d="M27.8832914,11.9882321 L37.2411124,11.9882321 L37.2411124,9.22467857 L27.8832914,9.22467857 L27.8832914,11.9882321 Z M37.2411124,16.014625 C37.2411124,16.3381429 36.9766552,16.600375 36.6503924,16.600375 L27.8832914,16.600375 L27.8832914,13.8550893 L37.2411124,13.8550893 L37.2411124,16.014625 Z M25.3660952,5.80210714 L31.8497524,5.80210714 L31.3953219,7.35782143 L26.0005943,7.35782143 L26.0005943,18.4672321 L37.296579,18.4672321 C38.3056762,18.4672321 39.1238095,17.6559821 39.1238095,16.655375 L39.1238095,7.35782143 L33.7578057,7.35782143 L34.2122362,5.80210714 L39.6475733,5.80210714 L39.6475733,3.93544643 L25.3660952,3.93544643 L25.3660952,5.80210714 Z" id="Fill-12" fill="#1D1D27" mask="url(#mask-4)"></path>
                    <path d="M58.9869775,9.24544107 L57.4499566,9.24544107 L57.4499566,11.0013161 L59.2704518,11.0013161 C59.7854994,11.0013161 60.2678613,10.7502804 60.560448,10.3297268 L61.0917394,9.56561964 L61.9047223,10.5186911 C62.1947337,10.8266911 62.600829,11.0013161 63.0257432,11.0013161 L64.6875642,11.0013161 L64.6875642,9.24544107 L63.370429,9.24544107 C63.2272061,9.24544107 63.0901242,9.18808393 62.9900861,9.08653036 L62.4795947,8.4261375 L64.8351451,8.4261375 L64.8351451,6.72860179 L62.1150994,6.72860179 L62.1150994,5.99690536 L64.8351451,5.99690536 L64.8351451,4.29956607 L60.3383832,4.29956607 L60.7769661,3.71420893 L58.6224823,3.71420893 L58.0793051,4.43254821 C58.0032366,4.53311964 57.8837851,4.59224464 57.7572023,4.59224464 L57.378048,4.59224464 L57.378048,6.28978036 L58.2393661,6.28978036 C58.5327451,6.28978036 58.8126537,6.18370893 59.0301623,5.99690536 L60.0784823,5.99690536 L60.0784823,6.72860179 L57.417469,6.72860179 L57.417469,8.4261375 L59.7829242,8.4261375 L59.474688,8.97653036 C59.3700937,9.14369107 59.185469,9.24544107 58.9869775,9.24544107" id="Fill-13" fill="#1D1D27" mask="url(#mask-4)"></path>
                    <path d="M67.1508785,5.85484821 L69.9923566,5.85484821 L69.9923566,8.58736607 C69.9923566,8.91049107 69.7280975,9.17272321 69.4020328,9.17272321 L67.1508785,9.17272321 L67.1508785,5.85484821 Z M65.2620404,11.0289732 L70.1104213,11.0289732 C71.0884175,11.0289732 71.8811947,10.2426696 71.8811947,9.27290179 L71.8811947,3.98190179 L65.2620404,3.98190179 L65.2620404,11.0289732 Z" id="Fill-14" fill="#1D1D27" mask="url(#mask-4)"></path>
                    <path d="M59.6256762,13.9635179 L69.6332495,13.9635179 L69.6332495,13.2176786 L59.6256762,13.2176786 L59.6256762,13.9635179 Z M69.6332495,16.2230357 C69.6332495,16.4442143 69.4525867,16.6235536 69.2295314,16.6235536 L59.6258743,16.6233571 L59.6258743,15.8071964 L69.6332495,15.8071964 L69.6332495,16.2230357 Z M69.6332495,11.4325357 L59.6258743,11.4325357 L57.7368381,11.4325357 L57.7368381,18.4086964 L59.6258743,18.4086964 L59.6258743,18.4086964 L69.6332495,18.4086964 L69.7515124,18.4086964 C70.7295086,18.4086964 71.5222857,17.6225893 71.5222857,16.6528214 L71.5222857,11.4325357 L69.6332495,11.4325357 Z" id="Fill-15" fill="#1D1D27" mask="url(#mask-4)"></path>
                    <path d="M79.2513082,6.0152125 C79.2513082,6.23089107 79.0750034,6.4057125 78.8574949,6.4057125 L76.3735787,6.4057125 L78.4424853,3.76060536 L76.0764358,3.76060536 L73.784672,6.65498036 L73.784672,8.1615875 L79.5446872,8.1615875 C80.3606415,8.1615875 81.0220815,7.5057125 81.0220815,6.69662321 L81.0220815,5.54378393 L79.2513082,5.54378393 L79.2513082,6.0152125 Z" id="Fill-16" fill="#1D1D27" mask="url(#mask-4)"></path>
                    <path d="M83.3298712,8.39557321 L83.3298712,6.85439464 L85.9164008,6.85439464 C86.8522027,6.85439464 87.585155,6.10187679 87.585155,5.14114464 L87.585155,3.91719821 L85.696317,3.91719821 L85.696317,4.65832321 C85.696317,4.83668036 85.5503208,4.98144821 85.3704503,4.98144821 L83.3298712,4.98144821 L83.3298712,3.79050179 L81.5000655,3.79050179 L81.5000655,8.98093036 C81.5000655,9.95069821 82.2930408,10.7368054 83.2708389,10.7368054 L87.853376,10.7368054 L87.853376,8.92239464 L83.8611627,8.92239464 C83.5677836,8.92239464 83.3298712,8.68648393 83.3298712,8.39557321" id="Fill-17" fill="#1D1D27" mask="url(#mask-4)"></path>
                    <path d="M83.3298712,16.0539696 L83.3298712,14.6442018 L86.1095436,14.6442018 C86.9245074,14.6442018 87.585155,13.9891125 87.585155,13.1810054 L87.585155,11.7068089 L85.696317,11.7068089 L85.696317,12.4752375 C85.696317,12.6386661 85.5626027,12.7712554 85.3977874,12.7712554 L83.3298712,12.7712554 L83.3298712,11.3608982 L81.5000655,11.3608982 L81.5000655,16.6393268 C81.5000655,17.6090946 82.2930408,18.3952018 83.2708389,18.3952018 L87.853376,18.3952018 L87.853376,16.5807911 L83.8611627,16.5807911 C83.5677836,16.5807911 83.3298712,16.3448804 83.3298712,16.0539696" id="Fill-18" fill="#1D1D27" mask="url(#mask-4)"></path>
                    <path d="M76.0081524,14.1862679 L78.9554133,14.1862679 L78.9554133,13.3217857 L76.0081524,13.3217857 L76.0081524,14.1862679 Z M76.0081524,11.4488393 L78.9554133,11.4488393 L78.9554133,10.5843571 L76.0081524,10.5843571 L76.0081524,11.4488393 Z M74.1191162,18.4090893 L76.0079543,18.4090893 L76.0079543,16.59625 L76.0081524,16.5968393 L76.0081524,16.0592143 L78.9554133,16.0592143 L78.9554133,16.1656786 C78.9554133,16.4946964 78.6864,16.7614464 78.3545905,16.7614464 L78.3545905,18.4086964 L79.0106819,18.4086964 C80.0199771,18.4086964 80.8381105,17.5974464 80.8381105,16.5968393 L80.8381105,8.69294643 L74.1191162,8.69294643 L74.1191162,18.4090893 Z" id="Fill-19" fill="#1D1D27" mask="url(#mask-4)"></path>
                    <path d="M16.9030705,4.01928214 L9.88772571,0.000157142857 L0.997013333,5.06428214 L4.34105905,6.97926429 C4.59521524,7.12462143 4.90800762,7.12481786 5.16216381,6.97985357 L9.03334095,4.76963929 C9.54640762,4.47696071 10.1777371,4.47696071 10.6908038,4.76963929 L14.5344457,6.96394286 C14.7880076,7.10890714 15.1002057,7.10890714 15.3541638,6.96433571 L18.7071238,5.05288929 C18.7071238,5.05288929 16.9022781,4.02006786 16.9030705,4.01928214" id="Fill-20" fill="#00D263" mask="url(#mask-4)"></path>
                    <path d="M8.39367162,17.3645214 L4.58647924,15.1912357 C4.07321448,14.8981643 3.75705448,14.3562179 3.75705448,13.7698786 L3.75705448,9.36595 C3.75705448,9.07445 3.59996495,8.80514643 3.34521448,8.65959286 L-1.9809524e-05,6.74952143 L-1.9809524e-05,16.8549857 L8.80551162,21.8918071 L8.80551162,18.0708786 C8.80551162,17.7791821 8.6484221,17.510075 8.39367162,17.3645214" id="Fill-21" fill="#0062FF" mask="url(#mask-4)"></path>
                    <path d="M11.3305722,17.3645214 L15.1375665,15.1912357 C15.6510293,14.8981643 15.9671893,14.3562179 15.9671893,13.7698786 L15.9671893,9.36575357 C15.9671893,9.07425357 16.1242789,8.80514643 16.3790293,8.65959286 L19.7242636,6.74952143 L19.7242636,6.74952143 L19.7242636,16.8549857 L10.9187322,21.8918071 L10.9187322,18.0708786 C10.9187322,17.7791821 11.0758217,17.510075 11.3305722,17.3645214" id="Fill-22" fill="#FF502E" mask="url(#mask-4)"></path>
                </g>
            </g>
        </g>
    </g>
</svg>